<svg xmlns="http://www.w3.org/2000/svg" width="75.027" height="156.191"><defs><clipPath id="a"><path data-name="Rectangle 62" fill="none" d="M0 0h75.013v156.191H0z"/></clipPath></defs><g data-name="Group 56"><g data-name="Group 55"><g data-name="Group 54" clip-path="url(#a)" transform="translate(.014)"><path data-name="Path 680" d="M65.83.445a8.714 8.714 0 0 0-8.357 8.774v34.167H23.078V9.04a8.6 8.6 0 0 0-17.2 0v50.767h-5.9v11.134a37.342 37.342 0 0 0 74.684 0v-61.9a8.6 8.6 0 0 0-8.84-8.595Zm0 0" fill="#fdd1a7"/><path data-name="Path 681" d="M30.918 56.667H14.14v13.3a5.41 5.41 0 0 0 5.411 5.411h11.368a9.357 9.357 0 0 0 0-18.713Zm0 0" fill="#ffbc8a"/><path data-name="Path 682" d="M74.668 9.04v61.9a37.335 37.335 0 0 1-42.288 37.014A37.347 37.347 0 0 0 64.769 70.94V9.04a8.585 8.585 0 0 0-3.622-7.011A8.41 8.41 0 0 1 65.831.444a8.6 8.6 0 0 1 8.838 8.6Zm0 0" fill="#ffbc8a"/></g></g><path data-name="Path 683" d="M23.092 42.279v28.776a8.6 8.6 0 0 0 17.2 0V42.279a8.6 8.6 0 0 0-17.2 0Zm0 0" fill="#ffbc8a"/><path data-name="Path 684" d="M57.487 46.918v-4.639a8.6 8.6 0 0 0-17.2 0v4.639Zm0 0" fill="#ffbc8a"/><path data-name="Path 685" d="M40.29 62.935v8.12a8.6 8.6 0 0 0 17.2 0v-8.12Zm0 0" fill="#ffbc8a"/><path data-name="Path 686" d="M50.414 62.935v8.123a8.6 8.6 0 0 1-5.06 7.839 8.6 8.6 0 0 0 12.134-7.839V62.94Zm0 0" fill="#f5a871"/><path data-name="Path 687" d="M50.414 42.277v4.641h7.074v-4.641a8.6 8.6 0 0 0-12.134-7.839 8.6 8.6 0 0 1 5.06 7.839Zm0 0" fill="#f5a871"/><path data-name="Path 688" d="M40.289 42.472a8.725 8.725 0 0 0-8.492-8.793 8.548 8.548 0 0 0-3.642.759 8.605 8.605 0 0 1 5.062 7.839v14.67a9.355 9.355 0 0 0-2.286-.282h-7.839v14.388a8.51 8.51 0 0 0 1.171 4.327s3.364-.013 5.686-.035a1.046 1.046 0 0 1 .766 1.773l-.016.016a8.6 8.6 0 0 1-2.542 1.759 8.6 8.6 0 0 0 12.132-7.839Zm0 0" fill="#f5a871"/><path data-name="Path 689" d="M40.29 59.852a9.356 9.356 0 0 1-9.356 9.356H.002v-9.356a9.357 9.357 0 0 1 9.358-9.356h21.575a9.356 9.356 0 0 1 9.356 9.356Zm0 0" fill="#fdd1a7"/><path data-name="Path 690" d="M18.14 33.517a2.353 2.353 0 0 0-3.309.356l-.341.422-.31-.4a2.355 2.355 0 0 0-3.708 2.9l1.637 2.089v2.8a2.354 2.354 0 1 0 4.708 0v-2.773l1.679-2.082a2.355 2.355 0 0 0-.356-3.311Zm0 0" fill="#f5a871"/><path data-name="Path 691" d="M64.04 44.048a2.354 2.354 0 0 1-2.225-3.127l2.2-6.344a2.354 2.354 0 0 1 2.223-1.583h.011a2.353 2.353 0 0 1 2.22 1.6l2.136 6.344a16.439 16.439 0 0 0-6.566 3.106Zm0 0" fill="#f5a871"/><path data-name="Rectangle 63" fill="#f82f40" d="M40.29 45.683h17.197v10.982H40.29z"/><path data-name="Rectangle 64" fill="#e22334" d="M50.414 45.683h7.074v10.982h-7.074z"/><path data-name="Rectangle 65" fill="#27e19d" d="M40.29 56.665h17.197v8.157H40.29z"/><path data-name="Rectangle 66" fill="#26d192" d="M50.414 56.665h7.074v8.157h-7.074z"/><path data-name="Path 692" d="M28.434 62.173a2.354 2.354 0 0 1-2.355-2.354v-.032a2.355 2.355 0 1 1 4.709 0v.032a2.354 2.354 0 0 1-2.354 2.354Zm0 0" fill="#f82f40"/><path data-name="Path 693" d="M20.145 62.173h-.011a2.353 2.353 0 0 1-2.342-2.365v-.032a2.355 2.355 0 0 1 2.354-2.344h.011a2.355 2.355 0 0 1 2.344 2.366v.032a2.355 2.355 0 0 1-2.356 2.343Zm0 0" fill="#f82f40"/><path data-name="Path 694" d="M11.856 62.173a2.354 2.354 0 0 1-2.354-2.354v-.032a2.354 2.354 0 1 1 4.708 0v.032a2.354 2.354 0 0 1-2.354 2.354Zm0 0" fill="#f82f40"/><path data-name="Path 695" d="M66.224 71.387h-.033a2.354 2.354 0 0 1 0-4.709h.033a2.354 2.354 0 0 1 0 4.709Zm0 0" fill="#f82f40"/><path data-name="Path 696" d="M66.224 63.097h-.044a2.355 2.355 0 0 1 .011-4.709h.044a2.355 2.355 0 0 1-.011 4.709Zm0 0" fill="#f82f40"/><path data-name="Path 697" d="M66.224 54.807h-.033a2.354 2.354 0 1 1 0-4.708h.033a2.354 2.354 0 0 1 0 4.708Zm0 0" fill="#f82f40"/></g></svg>