<svg xmlns="http://www.w3.org/2000/svg" width="48.369" height="69.267"><path data-name="Path 909" d="M47.392 21.141c.569-4.146.843-7.6.974-10.129a2.785 2.785 0 0 0-1.132-2.386c-1.653-1.216-2.012-1.612-2.951-1.621a3.025 3.025 0 0 0-1.9.679 2.784 2.784 0 0 0-1.4-2.153c-1.786-1.01-2.19-1.36-3.124-1.257-.9.06-1.237.452-2.755 1.644A2.79 2.79 0 0 0 34.04 8.3c.126 1.842.238 4.274.246 7.164a2.739 2.739 0 0 0-3.347.136l-.22.2c-.135-1.211-.276-2.3-.411-3.248a2.784 2.784 0 0 0-1.568-2.125l-1.607-.76a115.96 115.96 0 0 0-.729-6.476 2.784 2.784 0 0 0-1.568-2.125c-1.855-.877-2.284-1.2-3.207-1.025-.892.125-1.195.536-2.628 1.841a2.79 2.79 0 0 0-.882 2.458c.1.686.2 1.456.3 2.3a2.9 2.9 0 0 0-2.8 1.086l-.8.727a2.79 2.79 0 0 0-.882 2.458c.087.611.177 1.289.267 2.026a123.008 123.008 0 0 0-2.82-7.696 2.785 2.785 0 0 0-2.038-1.68c-2.025-.4-2.511-.6-3.36-.215-.835.338-1.031.814-2.1 2.424a2.79 2.79 0 0 0-.258 2.6c.394.966.842 2.111 1.322 3.419l-1.076-.167h-.009A2.5 2.5 0 0 0 1.342 12.8l-.939 1.551a2.79 2.79 0 0 0-.149 2.607c.984 2.15 2.285 5.208 3.636 8.992a127.391 127.391 0 0 1 4.8 17.255h33.747a135.576 135.576 0 0 0 4.955-22.064Z" fill="#ffcf5d"/><g data-name="Group 102" fill="#ff983b"><path data-name="Path 910" d="M37.966 26.876c.478-2.457.841-4.7 1.114-6.672.552-3.979.813-7.293.934-9.654a2.79 2.79 0 0 1 1.337-2.243l1.028-.624a2.784 2.784 0 0 0-1.4-2.153l-1.668-.94a2.345 2.345 0 0 0-1.455-.313 118.869 118.869 0 0 1 .11 22.599Z"/><path data-name="Path 911" d="m28.739 10.431-1.607-.76a115.96 115.96 0 0 0-.729-6.476 2.784 2.784 0 0 0-1.569-2.122L23.101.251a2.343 2.343 0 0 0-1.474-.206 103.28 103.28 0 0 1 1.4 11.094l1.222-1.113a2.336 2.336 0 0 1 1.287-.62 124.38 124.38 0 0 1 1.336 31.739 134.72 134.72 0 0 0-.177-4.517 121.458 121.458 0 0 0-.987-10.127 2.785 2.785 0 0 0-1.568-2.125l-1.155-.546-.025-.472c-.221-4.012-.6-7.313-.935-9.654a2.792 2.792 0 0 1 .458-1.968c-.087-.709-.175-1.367-.261-1.969a2.784 2.784 0 0 0-1.568-2.125l-1.733-.819a2.654 2.654 0 0 0-.5-.179 2.281 2.281 0 0 0-.974-.028 113.958 113.958 0 0 1 1.732 17.78l.468-.426a2.374 2.374 0 0 1 1.3-.622l.553 19.859h8.127a127.149 127.149 0 0 0 .029-14.271c-.221-4.012-.6-7.313-.935-9.654a2.789 2.789 0 0 1 .882-2.458l.268-.244.852-.776c-.135-1.211-.276-2.3-.411-3.248a2.782 2.782 0 0 0-1.573-2.125Z"/><path data-name="Path 912" d="M14.202 12.942a118.705 118.705 0 0 0-2.817-7.7 2.785 2.785 0 0 0-2.038-1.68l-1.3-.257-.584-.116a2.344 2.344 0 0 0-1.48.158 124.086 124.086 0 0 1 8.9 29.763 134.746 134.746 0 0 0-3.191-10.17 121.238 121.238 0 0 0-3.82-9.431 2.784 2.784 0 0 0-2.107-1.593l-.817-.127-1.075-.167a2.342 2.342 0 0 0-1.472.221 124.872 124.872 0 0 1 10.553 31.364h1.119c.442-3.5.71-6.846.851-9.953.223-4.9.136-9.229-.054-12.685a116.83 116.83 0 0 0-.668-7.627Z"/><path data-name="Path 913" d="M37.991 28.262a119.69 119.69 0 0 0-.987-10.127 2.784 2.784 0 0 0-1.568-2.125l-.937-.443-.21-.1-.586-.277a2.344 2.344 0 0 0-1.474-.206 122.756 122.756 0 0 1 1.577 28.223h4.2a135.44 135.44 0 0 0-.015-14.945Z"/><path data-name="Path 914" d="m47.233 8.626-1.544-1.137a2.343 2.343 0 0 0-1.407-.485 125.92 125.92 0 0 1-6.231 36.2h4.388a135.631 135.631 0 0 0 4.952-22.066c.569-4.146.843-7.6.974-10.129a2.784 2.784 0 0 0-1.132-2.383Z"/></g><path data-name="Path 915" d="M44.751 34.636h-8.5a2.081 2.081 0 0 0-2.03 1.685 8.364 8.364 0 0 1-16.384 0 2.082 2.082 0 0 0-2.03-1.685h-8.61a2.091 2.091 0 0 0-2.064 2.423L9.894 66.62l.143.89a2.09 2.09 0 0 0 2.064 1.758H39.85a2.09 2.09 0 0 0 2.064-1.758l4.9-30.451a2.09 2.09 0 0 0-2.063-2.423Z" fill="#ff5368"/><path data-name="Path 916" d="M44.751 34.636H42.97l-4.9 30.451H9.647l.247 1.533.143.89a2.09 2.09 0 0 0 2.064 1.758H39.85a2.09 2.09 0 0 0 2.064-1.758l4.9-30.451a2.091 2.091 0 0 0-2.063-2.423Z" fill="#d9435b"/></svg>