<svg xmlns="http://www.w3.org/2000/svg" width="99.763" height="116.439"><defs><clipPath id="a"><path data-name="Rectangle 72" fill="none" d="M0 0h99.482v116.439H0z"/></clipPath></defs><g data-name="Group 65"><path data-name="Path 750" d="M12.303 61.115v-6.649a37.578 37.578 0 1 1 75.157 0v6.649h8.782v-6.649a46.361 46.361 0 1 0-92.722 0v6.649Zm0 0" fill="#688d97"/><path data-name="Path 751" d="M96.244 54.465v6.651h-6.967v-6.651A46.42 46.42 0 0 0 46.399 8.238q1.727-.131 3.483-.131a46.414 46.414 0 0 1 46.362 46.359Zm0 0" fill="#557983"/><path data-name="Path 752" d="M0 68.548V81.37a7.528 7.528 0 0 0 7.527 7.529h15.787V68.548Zm0 0" fill="#fb5f62"/><path data-name="Rectangle 71" fill="#fb4a59" d="M0 68.548h23.315v7.496H0z"/><path data-name="Path 753" d="M23.314 69.877V55.622H7.527A7.527 7.527 0 0 0 0 63.149v6.727Zm0 0" fill="#31a7fb"/><path data-name="Path 754" d="M7.913 75.069a1.754 1.754 0 0 1-1.754-1.754v-3.438a1.754 1.754 0 0 1 3.507 0v3.438a1.753 1.753 0 0 1-1.753 1.754Zm0 0" fill="#384848"/><path data-name="Path 755" d="M76.449 68.548v20.351H92.24a7.528 7.528 0 0 0 7.527-7.529V68.548Zm0 0" fill="#fb5f62"/><path data-name="Path 756" d="M76.449 68.548v7.5h10.076a5.326 5.326 0 0 1 5.326 5.326 7.528 7.528 0 0 1-7.527 7.527h7.916a7.528 7.528 0 0 0 7.527-7.527V68.548Zm0 0" fill="#fb4a59"/><path data-name="Path 757" d="M99.763 63.15v6.727H76.45V55.62h15.788a7.528 7.528 0 0 1 7.527 7.53Zm0 0" fill="#31a7fb"/><path data-name="Path 758" d="M99.764 63.15v6.727h-7.913V63.15a7.529 7.529 0 0 0-7.527-7.53h7.912a7.529 7.529 0 0 1 7.527 7.53Zm0 0" fill="#1c96f9"/><path data-name="Path 759" d="M91.851 75.069a1.753 1.753 0 0 1-1.753-1.754v-3.438a1.754 1.754 0 0 1 3.507 0v3.438a1.754 1.754 0 0 1-1.754 1.754Zm0 0" fill="#384848"/><path data-name="Path 760" d="M73.955 116.439a2.234 2.234 0 0 0 2.163-2.8L71.01 94.018h.066a8.262 8.262 0 1 0 7.124-14.07 32.136 32.136 0 1 0-56.63 0 8.262 8.262 0 1 0 7.124 14.069l-5.108 19.621a2.235 2.235 0 0 0 2.163 2.8Zm0 0" fill="#fff2e3"/><path data-name="Path 761" d="M78.197 79.952a32.111 32.111 0 0 0-13.508-43.7.044.044 0 0 0 0-.013 32.074 32.074 0 0 0-32.5 1.67 44.23 44.23 0 0 1-.466 3.619 6.333 6.333 0 0 0 9.685 6.4 77.168 77.168 0 0 0 6.375-4.575c.3 3.786.624 8.128.9 12.107a5.672 5.672 0 0 0 10.929 1.706 77.99 77.99 0 0 0 1.971-5.571 3.879 3.879 0 0 1 7.222-.483 32.065 32.065 0 0 1 .329 26.584 2.248 2.248 0 0 0 1.1 2.942 8.251 8.251 0 0 1 1.515 13.966 8.261 8.261 0 1 0 6.449-14.658Zm0 0" fill="#ffe5c4"/><path data-name="Path 762" d="M44.577 68.564a7.928 7.928 0 1 1-7.928-7.929 7.928 7.928 0 0 1 7.928 7.929Zm0 0" fill="#d68a5a"/><path data-name="Path 763" d="M42.255 74.169a7.927 7.927 0 0 1-12.977-2.683A7.929 7.929 0 0 0 39.57 61.193a7.929 7.929 0 0 1 2.685 12.976Zm0 0" fill="#c47a4a"/><path data-name="Path 764" d="M71.043 68.564a7.928 7.928 0 1 1-7.928-7.929 7.928 7.928 0 0 1 7.928 7.929Zm0 0" fill="#d68a5a"/><path data-name="Path 765" d="M68.722 74.169a7.927 7.927 0 0 1-11.214 0 7.844 7.844 0 0 1-1.763-2.683 7.929 7.929 0 0 0 10.292-10.293 7.929 7.929 0 0 1 2.685 12.976Zm0 0" fill="#c47a4a"/><path data-name="Path 766" d="M45.783 84.588a1.754 1.754 0 0 1-1.508-2.646 6.448 6.448 0 0 1 11.113 0 1.754 1.754 0 1 1-3.019 1.786 2.941 2.941 0 0 0-5.076 0 1.752 1.752 0 0 1-1.51.86Zm0 0" fill="#d68a5a"/><g data-name="Group 64"><g data-name="Group 63" clip-path="url(#a)" transform="translate(.281)"><path data-name="Path 767" d="M67.638 116.166a1.789 1.789 0 0 1 .021.273h-3.525l-1.676-10.627h-6.317l.545 10.536v.091h-3.509l-.549-10.627h-6.124l-.55 10.627h-3.509v-.091l.545-10.536h-6.316l-1.673 10.627h-3.528a1.788 1.788 0 0 1 .021-.273l1.631-10.354h-7.789l.911-3.507h7.429l1.157-7.341a1.754 1.754 0 0 1 3.465.547l-1.071 6.793h5.945l.369-7.157a1.753 1.753 0 0 1 3.5.182l-.36 6.975h5.76l-.359-6.975a1.753 1.753 0 0 1 3.5-.182l.369 7.157h5.947l-1.071-6.793a1.753 1.753 0 1 1 3.463-.547l1.157 7.341h7.429l.911 3.507h-7.79Zm0 0" fill="#d68a5a"/><path data-name="Path 768" d="M54.989 55.444c2.742-6.894 7.54-22.373 3.39-38.511a1.662 1.662 0 0 0-2.8-.735l-9.924 10.145s-4.169-14.6-9.757-25.541a1 1 0 0 0-1.871.626c1.623 9.4 4.252 28.169 2.021 40.908a1.661 1.661 0 0 0 2.54 1.671c3.732-2.412 9.617-6.652 12.759-11.172 0 0 1.02 12.241 1.717 22.308a1 1 0 0 0 1.922.3Zm0 0" fill="#bf3ff6"/></g></g><path data-name="Path 769" d="M14.691 88.898H7.912v-6.311a3.39 3.39 0 1 1 6.779 0Zm0 0" fill="#fcb5ba"/><path data-name="Path 770" d="M91.874 88.898h-6.779v-6.311a3.39 3.39 0 1 1 6.779 0Zm0 0" fill="#fcb5ba"/></g></svg>