<svg xmlns="http://www.w3.org/2000/svg" width="33.696" height="76.779"><g data-name="Group 90"><path data-name="Path 797" d="M1.697 33.88h30.3v35.857h-30.3Z" fill="#3f5959"/><path data-name="Path 798" d="M1.697 33.88v4.263h22.257a3.746 3.746 0 0 1 3.746 3.746v27.848H32V33.88Z" fill="#384848"/></g><path data-name="Path 799" d="M32.195 35.498h-30.7a1.5 1.5 0 0 1-1.5-1.5v-4.17a1.5 1.5 0 0 1 1.5-1.5h30.7a1.5 1.5 0 0 1 1.5 1.5v4.17a1.5 1.5 0 0 1-1.5 1.5Z" fill="#fca62f"/><path data-name="Path 800" d="M33.696 29.828v4.17a1.5 1.5 0 0 1-1.5 1.5h-5.521a1.5 1.5 0 0 0 1.5-1.5v-4.17a1.5 1.5 0 0 0-1.5-1.5h5.521a1.5 1.5 0 0 1 1.5 1.5Z" fill="#fb9927"/><path data-name="Path 801" d="M31.379 76.779H2.317A2.317 2.317 0 0 1 0 74.462v-6.059a1.5 1.5 0 0 1 1.5-1.5h30.7a1.5 1.5 0 0 1 1.5 1.5v6.059a2.317 2.317 0 0 1-2.321 2.317Z" fill="#fca62f"/><path data-name="Path 802" d="M33.696 68.403v6.059a2.318 2.318 0 0 1-2.317 2.317h-5.52a2.318 2.318 0 0 0 2.317-2.317v-6.059a1.5 1.5 0 0 0-1.5-1.5h5.521a1.5 1.5 0 0 1 1.5 1.5Z" fill="#fb9927"/><path data-name="Path 803" d="M10.422 17.33a22.909 22.909 0 0 0-.449 4.254q0 .507.033.992a1.5 1.5 0 0 0 1.5 1.411h10.686a1.5 1.5 0 0 0 1.5-1.41q.032-.485.033-.992a22.924 22.924 0 0 0-.45-4.254H10.422Z" fill="#fcb44d"/><path data-name="Path 804" d="M15.857 6.967a4.091 4.091 0 0 0-1.184.792 8.119 8.119 0 0 1 1.184 1.418Z" fill="#fca62f"/><path data-name="Path 805" d="M18.923 17.33a22.9 22.9 0 0 1 .45 4.253q0 .507-.032.992a1.505 1.505 0 0 1-1.5 1.411h4.349a1.5 1.5 0 0 0 1.5-1.411c.022-.323.034-.654.034-.992a22.912 22.912 0 0 0-.45-4.253Z" fill="#fca62f"/><path data-name="Path 806" d="M23.48 18.535c-.8-5.4-3.464-11.776-6.632-11.776s-5.835 6.373-6.632 11.776Z" fill="#3f5959"/><path data-name="Path 807" d="M22.286 13.585c-1.257-3.712-3.225-6.825-5.438-6.825s-4.181 3.113-5.438 6.825h4.794a2.268 2.268 0 0 1 2.195 1.688c.279 1.066.605 2.4.733 3.258h4.349a28.938 28.938 0 0 0-1.194-4.95Z" fill="#384848"/><path data-name="Path 808" d="M31.357 29.181H2.338l9-5.7H22.35Z" fill="#fb9927"/><path data-name="Path 809" d="M31.361 29.182h-6.1l-9-5.7h6.094Z" fill="#f98824"/><path data-name="Path 810" d="M20.404 10.564h-7.113a1.5 1.5 0 0 1-1.5-1.5V1.5a1.5 1.5 0 0 1 1.5-1.5h7.113a1.5 1.5 0 0 1 1.5 1.5v7.563a1.5 1.5 0 0 1-1.5 1.5Z" fill="#3f5959"/><path data-name="Path 811" d="M21.904 1.5v7.564a1.5 1.5 0 0 1-1.5 1.5h-4.38a1.5 1.5 0 0 0 1.5-1.5V1.5a1.5 1.5 0 0 0-1.5-1.5h4.38a1.5 1.5 0 0 1 1.5 1.5Z" fill="#384848"/><g data-name="Group 91"><path data-name="Path 812" d="M17.655 16.152h-1.613a1.159 1.159 0 0 1 0-2.317h1.615a1.159 1.159 0 1 1 0 2.317Z" fill="#eff5f6"/></g><g data-name="Group 92"><path data-name="Path 813" d="M13.084 62.611H9.315a2.733 2.733 0 0 1-2.729-2.729v-5.755a1.159 1.159 0 1 1 2.317 0v5.757a.413.413 0 0 0 .412.412h3.77a1.159 1.159 0 0 1 0 2.317Z" fill="#eff5f6"/></g><g data-name="Group 93"><path data-name="Path 814" d="M24.381 62.611h-3.77a1.159 1.159 0 0 1 0-2.317h3.77a.413.413 0 0 0 .412-.412v-5.755a1.159 1.159 0 1 1 2.317 0v5.757a2.732 2.732 0 0 1-2.729 2.727Z" fill="#eff5f6"/></g><g data-name="Group 96" fill="#eff5f6"><path data-name="Path 815" d="M16.939 50.329c-2.775 0-4.949-1.666-4.949-3.792s2.174-3.792 4.949-3.792 4.944 1.666 4.944 3.792-2.174 3.792-4.949 3.792Zm0-5.267c-1.506 0-2.632.779-2.632 1.475s1.126 1.475 2.632 1.475 2.632-.779 2.632-1.475-1.126-1.475-2.632-1.475Z"/><g data-name="Group 94"><path data-name="Path 816" d="M21.38 58.094h-9.064a1.159 1.159 0 0 1 0-2.317h9.064a1.159 1.159 0 1 1 0 2.317Z"/><path data-name="Path 817" d="M21.38 54.364h-9.064a1.159 1.159 0 0 1 0-2.317h9.064a1.159 1.159 0 0 1 0 2.317Z"/></g><path data-name="Path 818" d="M25.952 50.035a1.158 1.158 0 0 1-1.159-1.159v-2.628a1.159 1.159 0 0 1 2.317 0v2.628a1.158 1.158 0 0 1-1.158 1.159Z"/><path data-name="Path 819" d="M7.744 50.035a1.158 1.158 0 0 1-1.159-1.159v-2.628a1.159 1.159 0 0 1 2.317 0v2.628a1.159 1.159 0 0 1-1.158 1.159Z"/><path data-name="Path 820" d="M7.744 42.828a1.159 1.159 0 0 1-.422-2.238 26.444 26.444 0 0 1 9.526-1.691 26.442 26.442 0 0 1 9.526 1.691 1.159 1.159 0 1 1-.844 2.158 24.109 24.109 0 0 0-8.682-1.532 24.11 24.11 0 0 0-8.682 1.532 1.154 1.154 0 0 1-.422.08Z"/><g data-name="Group 95"><path data-name="Path 821" d="M28.256 52.673h-.022a1.159 1.159 0 0 1 .005-2.317h.022a1.159 1.159 0 0 1-.005 2.317Z"/><path data-name="Path 822" d="M5.459 52.673h-.022a1.159 1.159 0 0 1 .005-2.317h.017a1.159 1.159 0 0 1-.005 2.317Z"/></g></g></svg>